<?xml version="1.0" encoding="iso-8859-1"?>
<!-- Uploaded to: SVG Repo, www.svgrepo.com, Generator: SVG Repo Mixer Tools -->
<!DOCTYPE svg PUBLIC "-//W3C//DTD SVG 1.1//EN" "http://www.w3.org/Graphics/SVG/1.1/DTD/svg11.dtd">
<svg fill="#000000" version="1.1" id="Capa_1" xmlns="http://www.w3.org/2000/svg" xmlns:xlink="http://www.w3.org/1999/xlink" 
	 width="800px" height="800px" viewBox="0 0 372.5 372.5" xml:space="preserve"
	>
<g>
	<path d="M288.488,0c-16.22,54.38-148.054,69.642-198.785,103.465c-67.214,48.74-2.61,173.551-2.61,173.551l5.477-2.137
		c8.775,11.992,17.388,20.178,14.503,24.382c-4.472,6.493-17.264,73.099-17.264,73.099l102.414,0.141c0,0-8.378-4.741-13.832-11
		c-3.743-4.285,1.133-12.775,6.551-27.488c0.741-1.984,5.167,0.841,8.011-5.861c2.849-6.715-2.809-10.09-2.137-12.098
		c0.595-1.787,1.04-1.576,1.407-2.99c0.753-4.086,2.61-6.539,5.132-7.986c38.166,1.145,48.115-0.748,38.68-27.185
		c1.227-1.121,8.046-5.558,9.494-8.723c1.459-3.153-1.974-3.935-1.974-3.935s2.499,0.116,4.355-2.768
		c1.845-2.908-3.165-14.258-3.165-14.258s12.67-2.756,15.438-7.521c2.768-4.741-22.303-33.91-21.369-39.188
		c0.923-5.266,5.139-7.765,6.341-9.096c1.18-1.326,3.981-15.636-11.479-38.406c-3.013-4.438-6.516-9.073-10.614-13.557
		c20.154,0.87,47.572-0.123,70.121-25.9C337.648,63.664,295.833,11.385,288.488,0z"/>
</g>
</svg>